<?xml version="1.0" encoding="utf-8"?>
<!-- Generator: Adobe Illustrator 23.0.3, SVG Export Plug-In . SVG Version: 6.00 Build 0)  -->
<svg version="1.1" id="Layer_1" xmlns="http://www.w3.org/2000/svg" xmlns:xlink="http://www.w3.org/1999/xlink" x="0px" y="0px"
	 viewBox="0 0 221 221" style="enable-background:new 0 0 221 221;" xml:space="preserve">
<style type="text/css">
	.st0{fill:#D20A0A;}
	.st1{fill:#9E9A9A;}
	.st2{fill:none;stroke:#6D6D6D;stroke-width:11;stroke-miterlimit:10;}
</style>
<g>
	<g>
		<g>
			<path class="st0" d="M68.85,109.35c-0.62-0.57-0.93-1.23-0.93-1.98V33.72c0-0.83,0.31-1.51,0.93-2.04
				c0.62-0.53,1.34-0.79,2.17-0.79h13.36c1.98,0,3.42,0.83,4.33,2.49l21.77,35.69l21.77-35.69c0.91-1.66,2.35-2.49,4.33-2.49h13.24
				c0.91,0,1.67,0.27,2.29,0.79c0.62,0.53,0.93,1.21,0.93,2.04v73.64c0,0.83-0.31,1.51-0.93,2.04c-0.62,0.53-1.38,0.79-2.29,0.79
				H135.1c-0.91,0-1.67-0.26-2.29-0.79c-0.62-0.53-0.93-1.21-0.93-2.04V64.88l-13.86,23.68c-1.07,1.74-2.52,2.61-4.33,2.61h-6.43
				c-1.07,0-1.94-0.23-2.6-0.68c-0.66-0.45-1.24-1.09-1.73-1.92L88.95,64.88v42.49c0,0.76-0.29,1.42-0.87,1.98
				c-0.58,0.57-1.32,0.85-2.23,0.85H71.02C70.19,110.2,69.47,109.92,68.85,109.35z"/>
		</g>
		<g>
			<path class="st1" d="M68.62,113.48c0.61-0.56,1.32-0.84,2.14-0.84h79.48c0.9,0,1.63,0.28,2.2,0.84s0.86,1.21,0.86,1.96v34.15
				c0,9.41-2.1,16.41-6.3,21c-4.2,4.59-10.17,6.89-17.91,6.89c-4.08,0-7.52-0.95-10.33-2.86c-2.81-1.9-4.87-4.05-6.18-6.44
				c-1.55,3.06-4.03,5.63-7.46,7.73c-3.42,2.09-7.26,3.14-11.49,3.14c-8.15,0-14.51-2.46-19.07-7.39
				c-4.57-4.93-6.85-11.94-6.85-21.05v-35.16C67.71,114.69,68.01,114.04,68.62,113.48z M83.6,148.36c0,3.06,0.98,5.45,2.94,7.17
				c1.96,1.72,4.32,2.58,7.09,2.58c2.94,0,5.36-0.86,7.27-2.58c1.91-1.72,2.87-4.11,2.87-7.17V132.8H83.6V148.36z M119.3,147.35
				c0,2.98,0.83,5.26,2.51,6.83c1.67,1.57,3.89,2.35,6.66,2.35c2.69,0,4.85-0.78,6.48-2.35c1.63-1.57,2.45-3.85,2.45-6.83V132.8
				h-18.1V147.35z"/>
		</g>
	</g>
	<circle class="st2" cx="110.5" cy="110.5" r="105"/>
</g>
</svg>
